<?xml version="1.0" encoding="UTF-8"?>
<svg width="20px" height="20px" viewBox="0 0 20 20" version="1.1" xmlns="http://www.w3.org/2000/svg" xmlns:xlink="http://www.w3.org/1999/xlink">
    <!-- Generator: Sketch 48.2 (47327) - http://www.bohemiancoding.com/sketch -->
    <title>Page 1</title>
    <desc>Created with Sketch.</desc>
    <defs>
        <polygon id="path-1" points="0 0.14 16.7078571 0.14 16.7078571 16.8496429 0 16.8496429"></polygon>
    </defs>
    <g id="Results" stroke="none" stroke-width="1" fill="none" fill-rule="evenodd" transform="translate(-974.000000, -22.000000)">
        <g id="Header-//-Menu">
            <g id="Page-1" transform="translate(974.000000, 22.000000)">
                <g id="Group-3" transform="translate(0.000000, 0.574643)">
                    <mask id="mask-2" fill="white">
                        <use xlink:href="#path-1"></use>
                    </mask>
                    <g id="Clip-2"></g>
                    <path d="M8.35428571,2.78892857 C5.20928571,2.78892857 2.65,5.34892857 2.65,8.49535714 C2.65,11.6403571 5.20928571,14.2003571 8.35428571,14.2003571 C11.4985714,14.2003571 14.0578571,11.6403571 14.0578571,8.49535714 C14.0578571,5.34892857 11.4985714,2.78892857 8.35428571,2.78892857 M8.35428571,16.8496429 C3.74857143,16.8496429 0,13.1010714 0,8.49535714 C0,3.88821429 3.74857143,0.139642857 8.35428571,0.139642857 C12.9592857,0.139642857 16.7078571,3.88821429 16.7078571,8.49535714 C16.7078571,13.1010714 12.9592857,16.8496429 8.35428571,16.8496429" id="Fill-1" fill="#FFFFFF" mask="url(#mask-2)"></path>
                </g>
                <path d="M17.3526429,19.6645 L13.0705,15.2837857 C12.8183571,15.0266429 12.8233571,14.6137857 13.0812143,14.3616429 L14.0426429,13.4209286 C14.3005,13.1687857 14.7126429,13.1737857 14.9640714,13.4309286 L19.2469286,17.8116429 C19.4983571,18.0695 19.4940714,18.4823571 19.2369286,18.7330714 L18.2747857,19.6745 C18.0176429,19.9259286 17.6047857,19.9216429 17.3526429,19.6645" id="Fill-4" fill="#FFFFFF"></path>
            </g>
        </g>
    </g>
</svg>